<?xml version="1.0" encoding="UTF-8" standalone="no"?>
<!-- Created with Inkscape (http://www.inkscape.org/) -->

<svg
   xmlns:dc="http://purl.org/dc/elements/1.1/"
   xmlns:cc="http://creativecommons.org/ns#"
   xmlns:rdf="http://www.w3.org/1999/02/22-rdf-syntax-ns#"
   xmlns:svg="http://www.w3.org/2000/svg"
   xmlns="http://www.w3.org/2000/svg"
   xmlns:sodipodi="http://sodipodi.sourceforge.net/DTD/sodipodi-0.dtd"
   xmlns:inkscape="http://www.inkscape.org/namespaces/inkscape"
   version="1.1"
   width="200"
   height="200"
   id="svg2"
   inkscape:version="0.48.2 r9819"
   sodipodi:docname="hymns-logo.svg">
  <sodipodi:namedview
     pagecolor="#ffffff"
     bordercolor="#666666"
     borderopacity="1"
     objecttolerance="10"
     gridtolerance="10"
     guidetolerance="10"
     inkscape:pageopacity="0"
     inkscape:pageshadow="2"
     inkscape:window-width="1339"
     inkscape:window-height="689"
     id="namedview8"
     showgrid="false"
     inkscape:zoom="2.2632031"
     inkscape:cx="21.792261"
     inkscape:cy="100"
     inkscape:window-x="0"
     inkscape:window-y="0"
     inkscape:window-maximized="0"
     inkscape:current-layer="text2985" />
  <defs
     id="defs4" />
  <metadata
     id="metadata7">
    <rdf:RDF>
      <cc:Work
         rdf:about="">
        <dc:format>image/svg+xml</dc:format>
        <dc:type
           rdf:resource="http://purl.org/dc/dcmitype/StillImage" />
        <dc:title></dc:title>
      </cc:Work>
    </rdf:RDF>
  </metadata>
  <g
     transform="translate(0,-852.36218)"
     id="layer1">
    <g
       id="text2985"
       style="font-size:40px;font-style:normal;font-weight:normal;line-height:125%;letter-spacing:0px;word-spacing:0px;fill:#169a52;fill-opacity:1;stroke:none;font-family:Sans">
      <path
         d="M 130.7125,934.81218 129.3625,890.26218 C 129.36238,873.91235 134.98738,865.73735 146.2375,865.73718 157.63735,865.73735 163.33735,873.91235 163.3375,890.26218 163.33735,899.56232 162.81235,914.03731 161.7625,933.68718 166.26235,934.58728 169.78734,936.46228 172.3375,939.31218 175.03734,942.16228 176.38734,945.53727 176.3875,949.43718 176.38734,953.33727 175.11234,956.71226 172.5625,959.56218 170.01234,962.41226 166.41235,964.13726 161.7625,964.73718 L 163.3375,1014.6872 C 163.33735,1030.8872 157.63735,1038.9872 146.2375,1038.9872 134.98738,1038.9872 129.36238,1030.8872 129.3625,1014.6872 L 130.7125,963.61218 99.4375,962.93718 69.0625,963.61218 70.6375,1014.6872 C 70.637442,1030.8872 64.937447,1038.9872 53.5375,1038.9872 42.13747,1038.9872 36.437476,1030.8872 36.4375,1014.6872 L 38.0125,964.73718 C 33.362479,964.13726 29.762482,962.41226 27.2125,959.56218 24.812487,956.56226 23.612489,953.18727 23.6125,949.43718 23.612489,945.53727 24.887487,942.16228 27.4375,939.31218 30.137482,936.46228 33.662479,934.58728 38.0125,933.68718 L 36.6625,890.48718 C 36.662476,874.13735 42.36247,865.96235 53.7625,865.96218 65.162447,865.96235 70.862441,874.13735 70.8625,890.48718 70.862441,900.08732 70.337442,914.8623 69.2875,934.81218 L 99.4375,935.48718 C 109.6374,935.48728 120.06239,935.26228 130.7125,934.81218"
         id="path3777"
         style="font-size:225px;font-variant:normal;font-weight:bold;font-stretch:normal;text-align:start;line-height:125%;writing-mode:lr-tb;text-anchor:start;fill:#169a52;stroke:#000000;stroke-width:8;stroke-miterlimit:4;stroke-opacity:1;stroke-dasharray:none;font-family:Delius Unicase;-inkscape-font-specification:Delius Unicase Bold;stroke-linejoin:miter;stroke-linecap:square;stroke-dashoffset:0" />
    </g>
  </g>
</svg>
