<?xml version="1.0" encoding="UTF-8" standalone="no"?>
<!-- Created with Inkscape (http://www.inkscape.org/) -->

<svg
   xmlns:dc="http://purl.org/dc/elements/1.1/"
   xmlns:cc="http://creativecommons.org/ns#"
   xmlns:rdf="http://www.w3.org/1999/02/22-rdf-syntax-ns#"
   xmlns:svg="http://www.w3.org/2000/svg"
   xmlns="http://www.w3.org/2000/svg"
   version="1.1"
   width="200"
   height="200"
   id="svg2985">
  <defs
     id="defs2987" />
  <metadata
     id="metadata2990">
    <rdf:RDF>
      <cc:Work
         rdf:about="">
        <dc:format>image/svg+xml</dc:format>
        <dc:type
           rdf:resource="http://purl.org/dc/dcmitype/StillImage" />
        <dc:title></dc:title>
      </cc:Work>
    </rdf:RDF>
  </metadata>
  <g
     transform="translate(0,-852.36218)"
     id="layer1">
    <g
       id="text2993"
       style="font-size:40px;font-style:normal;font-weight:normal;line-height:125%;letter-spacing:0px;word-spacing:0px;fill:#000000;fill-opacity:1;stroke:none;font-family:Sans">
      <path
         d="M 15.86,1034.2622 15.86,1028.3822 C 25.93998,1028.3822 31.819974,1026.5155 33.5,1022.7822 L 33.5,881.94221 C 31.819974,878.20903 25.93998,876.34236 15.86,876.34221 L 15.86,870.46221 86.7,870.46221 86.7,876.34221 C 76.619929,876.34236 70.739935,878.20903 69.06,881.94221 L 69.06,944.38221 130.94,944.38221 130.94,881.94221 C 129.25988,878.20903 123.37988,876.34236 113.3,876.34221 L 113.3,870.46221 184.14,870.46221 184.14,876.34221 C 174.05983,876.34236 168.17984,878.20903 166.5,881.94221 L 166.5,1022.7822 C 168.17984,1026.5155 174.05983,1028.3822 184.14,1028.3822 L 184.14,1034.2622 113.3,1034.2622 113.3,1028.3822 C 123.37988,1028.3822 129.25988,1026.5155 130.94,1022.7822 L 130.94,953.90221 69.06,953.90221 69.06,1022.7822 C 70.739935,1026.5155 76.619929,1028.3822 86.7,1028.3822 L 86.7,1034.2622 15.86,1034.2622"
         id="path3060"
         style="font-size:280px;font-variant:normal;font-weight:bold;font-stretch:normal;text-align:start;line-height:125%;writing-mode:lr-tb;text-anchor:start;font-family:Judson;-inkscape-font-specification:Judson Bold" />
    </g>
  </g>
</svg>
